<svg width="24" height="24" viewBox="0 0 24 24" fill="none" xmlns="http://www.w3.org/2000/svg">
<path fill-rule="evenodd" clip-rule="evenodd" d="M5 10.0346C5.00415 10.0951 5.00365 10.1105 5.01395 10.1704C5.0372 10.3051 5.08825 10.4347 5.16326 10.549C5.20116 10.6068 5.24526 10.6572 5.29231 10.7076L11.2926 16.7079C11.3369 16.7493 11.347 16.7608 11.3955 16.7976C11.4499 16.8388 11.5085 16.8745 11.5702 16.9038C11.8398 17.0321 12.1597 17.0321 12.4292 16.9038C12.4909 16.8745 12.5496 16.8388 12.604 16.7976C12.6524 16.7608 12.6625 16.7493 12.7068 16.7079L18.7071 10.7076C18.7485 10.6633 18.7601 10.6531 18.7968 10.6047C18.8932 10.4776 18.9583 10.3276 18.9855 10.1704C19.0048 10.0582 19.0048 9.9428 18.9855 9.83054C18.97 9.74079 18.9422 9.65323 18.9031 9.57098C18.7545 9.25857 18.4464 9.04106 18.1023 9.00566C17.9663 8.99171 17.8277 9.00596 17.6974 9.04731C17.5889 9.08176 17.4864 9.13481 17.3957 9.20362C17.3473 9.24037 17.3372 9.25192 17.2928 9.29332L11.9997 14.5864L6.70657 9.29332L6.65667 9.24672C6.60967 9.20847 6.59872 9.19757 6.54792 9.16426C6.45271 9.10181 6.34686 9.05581 6.23625 9.02886C6.14775 9.00731 6.05635 8.99791 5.96534 9.00101C5.61958 9.01281 5.29731 9.20882 5.12776 9.51033C5.07195 9.60958 5.0333 9.71834 5.01395 9.83054C5.00365 9.89045 5.00415 9.90585 5 9.96635C5 9.9891 5 10.0119 5 10.0346Z" fill="#110F24"/>
</svg>
